<svg id="Calque_1" data-name="Calque 1" xmlns="http://www.w3.org/2000/svg" viewBox="0 0 169.7 53.07"><defs><style>.cls-1{fill-rule:evenodd;}.cls-2{fill:none;stroke:#000;stroke-miterlimit:10;}</style></defs><title>Logos_Cleopatra&amp;apos;sBling</title><path class="cls-1" d="M61.34,31.94l-0.41,1.47a10.55,10.55,0,0,0-.2,1.1c0,0.33-.09.66-0.14,1a0.3,0.3,0,0,1,0,.06,9,9,0,0,0-.17,1.6,19.38,19.38,0,0,0-.3,3.21l-0.17,1.78c0.46-.39.88-0.72,1.27-1.09L63,39.28a0.65,0.65,0,0,0,.34-0.67,5.35,5.35,0,0,1,.21-2.49,28.88,28.88,0,0,1,.91-3.06,8.19,8.19,0,0,1,.9-1.54,2.41,2.41,0,0,1,1.09-.85,4.28,4.28,0,0,1,.69-0.18,0.7,0.7,0,0,1,.79.38,2.11,2.11,0,0,1-.12.75c-0.14.52-.3,1-0.48,1.55-0.27.75-.55,1.49-0.85,2.23a12.27,12.27,0,0,1-.71,1.19c-0.3.41-.56,0.85-0.83,1.28a10.33,10.33,0,0,0-.57,1,0.41,0.41,0,0,0,.08.39,0.76,0.76,0,0,0,.55.16,2.84,2.84,0,0,0,1.38-1.1c0.54-.73,1-1.51,1.51-2.28a9.56,9.56,0,0,0,.8-1.26c0.31-.68.52-1.41,0.78-2.11s0.45-1.16.68-1.74a3.28,3.28,0,0,1,.19-0.47,0.69,0.69,0,0,1,.77.13,1,1,0,0,1,.1.63L70.46,33a7.94,7.94,0,0,0-.56,2c0,0.76-.13,2.27-0.13,2.27,0,0.43.05,1.29,0.26,1.27a13.81,13.81,0,0,0,1.67-1.71c0.2-.38.47-0.72,0.64-1.1a10.83,10.83,0,0,0,.75-2.32,13.3,13.3,0,0,1,.45-1.48c0.06-.21.13-0.43,0.19-0.64s0.32-.24.49-0.17a0.55,0.55,0,0,1,.3.36,2,2,0,0,1-.06.72c-0.17.69-.41,1.37-0.53,2.07a18.28,18.28,0,0,0-.18,2.16,15.71,15.71,0,0,0,0,2,1.32,1.32,0,0,0,.4.92,5.76,5.76,0,0,0,1.19-1.85,15.2,15.2,0,0,0,1-3.66A26.8,26.8,0,0,0,76.58,31c0-.55.37-0.8,0.84-0.53a0.49,0.49,0,0,1,.13.39,4.73,4.73,0,0,0-.14,1.57c0.18,0.62,0,1.35.62,1.78a2.66,2.66,0,0,0,.41.3c0.41,0.11.51,0,.68-0.54A23.5,23.5,0,0,1,80,31.6a6,6,0,0,1,1.28-1.67,3.42,3.42,0,0,1,.6-0.42,0.58,0.58,0,0,1,.72.13,1.47,1.47,0,0,1,.25,1.4c-0.15.36-.23,0.74-0.41,1.08a4.78,4.78,0,0,1-1.19,1.75,9.18,9.18,0,0,0-1.24.91c-0.67.62-.47,1.41-0.35,2.18,0.05,0.33.1,0.67,0.16,1a0.81,0.81,0,0,0,1.06.78,2.14,2.14,0,0,0,1.34-.59,4.88,4.88,0,0,0,1.2-1.25,5.36,5.36,0,0,0,.28-1.63c0.05-.87.12-1.75,0.25-2.61a12,12,0,0,1,.42-1.91c0.26-.84.56-1.67,0.9-2.48A13.4,13.4,0,0,1,87,25.21a1.1,1.1,0,0,1,2,.12,12,12,0,0,1-.27,2.14c-0.11.61-.2,1.23-0.35,1.84a12.64,12.64,0,0,1-.51,1.46c0,0.09-.66,1.72-0.81,2s-2.08,3.11-2.13,3.2a3.63,3.63,0,0,0-.23.72,3.78,3.78,0,0,0,.42,1.44,0.92,0.92,0,0,0,1.15.49A4.21,4.21,0,0,0,88,37.25c0.09-.11.18-0.21,0.26-0.32A1.39,1.39,0,0,0,88.56,36,10.15,10.15,0,0,1,89,33c0.22-.77.32-1.57,0.54-2.34a29.68,29.68,0,0,1,1.67-4.09,4.12,4.12,0,0,1,1.44-1.82,1.71,1.71,0,0,1,1.18-.16,0.58,0.58,0,0,1,.51.84c-0.21.8-1.18,4-1.47,4.75a16,16,0,0,1-.58,1.6,17.73,17.73,0,0,1-.86,1.73c-0.32.55-1.2,1.93-1.26,2.09a2.66,2.66,0,0,1-.33.65A1.47,1.47,0,0,0,90,38.06a4,4,0,0,0,.69.74,0.92,0.92,0,0,0,.47.09,3.29,3.29,0,0,0,2-.51,0.65,0.65,0,0,0,.16-0.86,6.27,6.27,0,0,1,.22-2.83c0.17-.68.4-1.36,0.63-2a6.57,6.57,0,0,1,1.35-2.28,1.77,1.77,0,0,1,1.59-.66,1.15,1.15,0,0,1,.84.87,16.91,16.91,0,0,1,.1,1.71c0,0.32-.59,1.57-0.6,1.86a2.18,2.18,0,0,1-.62,1.17L96,36.41a8.11,8.11,0,0,0-1.52,1.79,0.6,0.6,0,0,0,.48.79,1.23,1.23,0,0,0,1-.26c0.62-.54,1.21-1.11,1.82-1.66a14.26,14.26,0,0,0,2-2.72,7.11,7.11,0,0,0,1.08-2.5,5.29,5.29,0,0,1,.57-1.29,0.53,0.53,0,0,1,.42-0.22,0.64,0.64,0,0,1,.48.24,4.84,4.84,0,0,1-.35,1.22c0,0.06-.22.72-0.29,1a10.36,10.36,0,0,0-.33,1.73l0.89-1.15a7.24,7.24,0,0,1,2-1.75c0.28-.17.6-0.23,0.88-0.39a0.59,0.59,0,0,1,.72.24A3.45,3.45,0,0,1,106,33c-0.12.65-.29,1.29-0.43,1.93a20.31,20.31,0,0,1-.49,2.22,3.18,3.18,0,0,0-.06,1.34c0,0.22.23,0.24,0.39,0.11,0.47-.39,1-0.77,1.4-1.2s0.74-.85,1.13-1.25a9.27,9.27,0,0,0,2-3.09c0.28-.7.6-1.39,0.94-2.07a0.52,0.52,0,0,1,.44-0.22c0.19,0,.51,0,0.53.3s-0.7,1.63-.79,1.9c-0.24.75-1.38,3.5-1.59,4.17-0.14.42-.54,2.66-0.67,3.35s-0.42,2.52-.49,2.94a1.65,1.65,0,0,0,1.1.15,7.28,7.28,0,0,1,2.57-.39,17.53,17.53,0,0,0,2.06,0,0.46,0.46,0,0,1,.42.31c-0.11,0-3.48.45-3.75,0.5s-2.66.59-2.76,1c-0.16.62-.32,1.24-0.5,1.86-0.09.31-.93,2.64-1.2,3.3-0.19.46-.45,0.9-0.65,1.36a9.54,9.54,0,0,1-1.1,1.62,0.89,0.89,0,0,1-.77-0.23,5.68,5.68,0,0,1-.64-1,4.29,4.29,0,0,1,0-2.82,5.77,5.77,0,0,1,.62-1.48c0.35-.65,2.06-2.75,2.7-2.94a2.42,2.42,0,0,0,.69-0.35,0.58,0.58,0,0,0,.16-0.34c0.21-1,.41-2,0.6-3,0.1-.56.14-1.13,0.25-1.69,0.16-.79.54-2.54,0.53-2.62s-1.41,1.25-1.46,1.32-1.1,1-1.34,1.27a1,1,0,0,1-1.08.12,0.92,0.92,0,0,1-.65-0.93,6.81,6.81,0,0,1,.17-1.78c0.24-1.08.56-2.14,0.83-3.21,0.1-.38.42-1.54,0.15-1.65s-2.59,2.3-2.72,2.48A15.31,15.31,0,0,0,101,36.88a4,4,0,0,1-.76,1.32,0.74,0.74,0,0,1-.58-0.1,0.44,0.44,0,0,1-.14-0.38c0.11-.55.27-1.08,0.39-1.63a3.45,3.45,0,0,0,0-.54s-1.12,1.22-1.14,1.21a16.51,16.51,0,0,1-2,2.07,8.1,8.1,0,0,1-1.33.75,1.54,1.54,0,0,1-.86,0A7.36,7.36,0,0,1,93.75,39a0.53,0.53,0,0,0-.46,0,3.2,3.2,0,0,1-2.19.48,2.53,2.53,0,0,1-1.94-1.23c-0.18-.29-0.32-0.6-0.49-0.91a6,6,0,0,1-1.16,1.26,9.44,9.44,0,0,1-.9.53,1.89,1.89,0,0,1-2.18-.63c-0.21-.36-0.39-0.73-0.59-1.09,0-.08-0.78,1-1.27,1.24l-0.81.48a2,2,0,0,1-1.84,0,2.15,2.15,0,0,1-1.15-1.89c-0.12-.7-0.13-1.42-0.19-2.16-0.69.09-1.05-.49-1.53-1.06-0.09.39-.15,0.67-0.22,0.94-0.14.52-.26,1-0.43,1.56s-0.39,1.22-.63,1.82a2.33,2.33,0,0,1-1.32,1.44,1.11,1.11,0,0,1-.72-0.05,1.64,1.64,0,0,1-.86-1.49,7.63,7.63,0,0,0-.12-1.17,0.73,0.73,0,0,0-.17-0.27l-0.3.26-0.56,1a1.42,1.42,0,0,1-.87.85,1.61,1.61,0,0,1-1,.32,0.81,0.81,0,0,1-.72-0.5,2.29,2.29,0,0,1-.31-1c-0.05-.47,0-0.94,0-1.42,0,0,0-.63-0.09-0.39s-0.47.74-.68,1.08a7.29,7.29,0,0,1-.92,1.5,4.4,4.4,0,0,1-1.81,1.34,1.47,1.47,0,0,1-1.43-.23c-0.09-.06-0.19-0.26-0.37,0a6.22,6.22,0,0,1-1,1L61,42.17a4.61,4.61,0,0,1-.62.63,2.11,2.11,0,0,0-.65,1.63L59.54,46.3s0.24,2.56-1.17,3.62a2,2,0,0,1-3.08-1.3,2.56,2.56,0,0,1,.39-1.7c0.46-.67,1-1.32,1.49-1.95s1.16-1.19,1.65-1.85A2.13,2.13,0,0,0,59,42.06c0.09-1.15.16-2.3,0.24-3.45,0.05-.76.06-1.53,0.18-2.28a18.92,18.92,0,0,1,.62-3.59,13.05,13.05,0,0,0,.4-1.79A0.42,0.42,0,0,1,61,30.64l0,0c0.56,0.33.58,0.33,0.62,0.54a1.46,1.46,0,0,1-.29.71M84.58,35.2c0.32,0,.61-1,0.91-1.48a24.82,24.82,0,0,0,1.25-2.16,15,15,0,0,0,.84-2.35c0.27-1,.46-2,0.66-3a1,1,0,0,0,0-.76,1.4,1.4,0,0,0-.79.61c-0.3.46-.6,1-0.85,1.43A28.72,28.72,0,0,0,85,31.63C84.81,32.56,84.26,35.16,84.58,35.2Zm12.7-4.85a1.93,1.93,0,0,0-1.58.95A6.79,6.79,0,0,0,95,32.66a6.23,6.23,0,0,0-.68,2.16c-0.12.84-.17,1.69-0.26,2.57a28.05,28.05,0,0,0,2.12-2.45A6,6,0,0,0,97.29,30.34Zm-6.93.39c-0.18.87-.21,1-0.33,1.56-0.18.8-.85,2.76-0.49,2.85s0.8-1.27,1.13-1.9c0.41-.78.9-1.36,1.28-2.25s0.72-2.65,1-3.78c0-.11.68-1.72,0.44-1.86s-1.22,1.07-1.32,1.27A33.22,33.22,0,0,0,90.36,30.73ZM105.51,46.2c-0.38.63-.86,1.18-1.19,1.86a7.62,7.62,0,0,0-.64,2.47,4,4,0,0,0,.14,1.18,0.45,0.45,0,0,0,.27.31,1.2,1.2,0,0,0,.5-0.35c0.35-.78.74-1.54,1.05-2.34s0.53-1.57.78-2.36c0.13-.4.19-0.82,0.35-1.21s-0.49-.44-0.52-0.47A3.26,3.26,0,0,0,105.51,46.2Zm-48.73.18a3.56,3.56,0,0,0-.44.76,3.09,3.09,0,0,0-.19,1,2.12,2.12,0,0,0,.23,1.31,1.14,1.14,0,0,0,.68.19,0.89,0.89,0,0,0,.78-0.16,2.51,2.51,0,0,0,.48-0.85c0.08-.34.2-1.07,0.27-1.6s0.13-1.14.18-1.71c0-.31,0-0.62,0-1A20.38,20.38,0,0,0,56.78,46.39Zm8.14-11.79c-0.09.27-.48,1.85-0.59,2.37a2.19,2.19,0,0,0-.09.58c0,0.05.13,0,.31-0.22s0.75-1.27,1-1.64a16.1,16.1,0,0,0,1-2.34,9.34,9.34,0,0,0,.5-1.81c0-.27-0.16-0.28-0.18-0.27a0.87,0.87,0,0,0-.46.26,4.62,4.62,0,0,0-.79,1.16C65.41,33.06,64.92,34.59,64.92,34.59Zm15.53-2.3a5.75,5.75,0,0,0-.23.63,1.81,1.81,0,0,0-.25.91,4.15,4.15,0,0,0,1.63-1.46c0.43-.65.8-2.3,0.61-2.31a1,1,0,0,0-.5.4,5.7,5.7,0,0,0-.63.66Z"/><path class="cls-1" d="M61.48,26.45A0.77,0.77,0,0,1,61,25.33a0.75,0.75,0,0,1,.61-0.23,1,1,0,0,1,.56.36,0.71,0.71,0,0,1,.1.51,0.6,0.6,0,0,1-.25.39A0.56,0.56,0,0,1,61.48,26.45Z"/><path d="M11.82,11.09a6.52,6.52,0,0,1-5.07,2.42A6.55,6.55,0,0,1,0,6.76,6.54,6.54,0,0,1,6.59,0a6.45,6.45,0,0,1,4.77,2l-0.77.77a5.41,5.41,0,0,0-4-1.71A5.48,5.48,0,0,0,1.13,6.76,5.49,5.49,0,0,0,6.7,12.44,5.48,5.48,0,0,0,11,10.38Z"/><path d="M15,12.25h6.19v1.07H13.89V0.19H15V12.25Z"/><path d="M24.4,1.26V5.54h4.69V6.61H24.4v5.65h6.19v1.07H23.28V0.19h7.13V1.26h-6Z"/><path d="M38,0A6.52,6.52,0,0,1,44.5,6.76a6.53,6.53,0,1,1-13.06,0A6.52,6.52,0,0,1,38,0Zm0,12.44a5.45,5.45,0,0,0,5.4-5.69,5.41,5.41,0,1,0-10.81,0A5.45,5.45,0,0,0,38,12.44Z"/><path d="M48,7v6.34H46.85V0.19h4.86A3.79,3.79,0,0,1,54.28,1a3.43,3.43,0,0,1,0,5.22A3.79,3.79,0,0,1,51.71,7H48Zm3.68-1.07a2.62,2.62,0,0,0,2-.69,2.31,2.31,0,0,0,0-3.27,2.63,2.63,0,0,0-2-.69H48V5.91h3.68Z"/><path d="M61.06,0.19l5.67,13.14H65.6L60.68,2,57.49,9.36l-1.73,4H54.64L60.31,0.19h0.75ZM57.94,8.29L60.68,2h0Z"/><path d="M74.52,0.19V1.26H70.76V13.32H69.64V1.26H65.89V0.19h8.63Z"/><path d="M85,13.32L79.92,6.61H77.71v6.72H76.58V0.19h4.48A3.56,3.56,0,0,1,83.62,1a3.22,3.22,0,0,1,0,4.73,3.39,3.39,0,0,1-2.35.84l5.07,6.72H85ZM81,5.54A2.42,2.42,0,0,0,82.83,5a2.14,2.14,0,0,0,0-3.15A2.42,2.42,0,0,0,81,1.26h-3.3V5.54H81Z"/><path d="M93.51,0.19l5.67,13.14H98.06L93.14,2,89.95,9.36l-1.73,4H87.1L92.76,0.19h0.75ZM90.4,8.29L93.14,2h0Z"/><path d="M100.61,0.19H102l-1.8,4.5H99.28Z"/><path d="M104.63,10.57a4.24,4.24,0,0,0,3.53,1.88,2.59,2.59,0,0,0,2.7-2.46c0-2.38-2.81-2.65-4.73-3.83a3.1,3.1,0,0,1-1.78-2.7A3.49,3.49,0,0,1,108.08,0a4.93,4.93,0,0,1,3.36,1.31l-0.71.83a3.69,3.69,0,0,0-2.61-1.07,2.41,2.41,0,0,0-2.65,2.33c0,2,2.65,2.25,4.52,3.42A3.66,3.66,0,0,1,112,10a3.59,3.59,0,0,1-3.83,3.53,5.27,5.27,0,0,1-4.35-2.21Z"/><path d="M126.29,5.87a3.94,3.94,0,0,1,2.31,3.57,3.87,3.87,0,0,1-1.3,2.89,4.22,4.22,0,0,1-3,1h-4.73V0.19h4.3a3.5,3.5,0,0,1,2.57.88A3.18,3.18,0,0,1,126.29,5.87Zm-2.46-.34a2.48,2.48,0,0,0,2-.69,2.08,2.08,0,0,0,.56-1.45A2.08,2.08,0,0,0,125.78,2a2.48,2.48,0,0,0-2-.69h-3.12V5.54h3.12Zm-3.12,1.07v5.65h3.55a3.14,3.14,0,0,0,2.35-.79,2.81,2.81,0,0,0,0-4.05,3.14,3.14,0,0,0-2.35-.81h-3.55Z"/><path d="M132.07,12.25h6.19v1.07h-7.32V0.19h1.13V12.25Z"/><path d="M140.33,0.19h1.13V13.32h-1.13V0.19Z"/><path d="M144.83,0.19h0.75l8.82,10.94V0.19h1.13V13.32h-0.75L146,2.38V13.32h-1.13V0.19Z"/><path d="M168.58,6.61h-4.32V5.54h5.44v5.54a6.67,6.67,0,0,1-11.82-4.32A6.54,6.54,0,0,1,164.47,0a6.45,6.45,0,0,1,4.77,2l-0.77.77a5.41,5.41,0,0,0-4-1.71A5.48,5.48,0,0,0,159,6.76a5.49,5.49,0,0,0,5.58,5.69,5.57,5.57,0,0,0,4-1.65V6.61Z"/><polyline class="cls-2" points="24.6 28.23 40.51 35.91 24.6 43.31"/><polyline class="cls-2" points="17.51 28.23 33.42 35.91 17.51 43.31"/><line class="cls-2" x1="54.34" y1="35.91" x2="20.87" y2="35.91"/><polyline class="cls-2" points="144.52 28.28 152.2 35.96 144.52 43.64"/><polyline class="cls-2" points="140.68 28.28 148.35 35.96 140.68 43.64"/><line class="cls-2" x1="152.2" y1="35.96" x2="118.47" y2="35.96"/></svg>