<svg id="Layer_1" data-name="Layer 1" xmlns="http://www.w3.org/2000/svg" viewBox="0 0 542.81 213.48"><defs><style>.cls-1{fill:none;stroke:#960;stroke-miterlimit:10;}</style></defs><title>Pattern2</title><polygon class="cls-1" points="277.03 88.04 285.15 81.44 287.84 91.55 298.29 90.98 294.52 100.75 303.31 106.43 294.52 112.11 298.29 121.88 287.84 121.31 285.15 131.42 277.03 124.82 268.91 131.42 266.22 121.31 255.77 121.88 259.54 112.11 250.75 106.43 259.54 100.75 255.77 90.98 266.22 91.55 268.91 81.44 277.03 88.04"/><polyline class="cls-1" points="345.63 85.56 375.29 110.41 315.47 156.45 285.11 131.21 271.94 170.88 255 170.88"/><polyline class="cls-1" points="224.47 66.04 219.44 81.44 250.75 106.43 219.44 131.42 224.26 146.91"/><polyline class="cls-1" points="295 41.88 279.19 41.88 268.91 81.25 237.06 57.16 183.69 94.45 200.12 106.73 183.69 117.49 237.06 156.5 268.91 131.23 280.19 170.88 296.19 170.88 308.19 161.81 298.29 121.78 333.94 123.95 345.94 85.73 314.94 59.98 285.15 81.25 273.19 41.88 258 41.88"/><polyline class="cls-1" points="224.26 146.91 243.44 212.81 296.19 170.88 355.69 170.88 338.74 108.5 334.44 91.9 298.16 91.07 309.37 53.17 277.15 29.02 243.67 53.08 255.77 90.88 216.31 90.88 211.69 106.56 216.31 123.91 255.77 121.83 243.69 161.98 307.44 211.49 331.4 132.31 303.31 106.43 332.44 85.75 328.28 71.08 308.44 4.75 277.15 29.03 245.19 1.25 224.47 66.04"/><polyline class="cls-1" points="255 170.88 187.19 170.88 211.69 106.56 187.19 46.41 258.09 42.02"/><polyline class="cls-1" points="295.19 42.25 358.44 46.5 345.94 85.75"/><polyline class="cls-1" points="239.19 20 253.94 31.75 259.23 13.45"/><polyline class="cls-1" points="293.78 16.13 298.94 35 313.78 22.6"/><polyline class="cls-1" points="341.48 45.23 335.69 63.88 353 63.88"/><polyline class="cls-1" points="362.04 99.38 345.94 109.5 362.04 120.72"/><polyline class="cls-1" points="350 151.88 334.19 151.88 338.34 170.88"/><polyline class="cls-1" points="293.62 200.77 299.19 181.75 313.21 192.43"/><polyline class="cls-1" points="237.92 194 253.19 181.75 258.89 200.77"/><polyline class="cls-1" points="194 151.88 214.19 151.88 208.09 170.88"/><polyline class="cls-1" points="183.69 94.5 167.78 106.75 183.69 117.5"/><polyline class="cls-1" points="194.19 63.72 211.69 61 205.2 45.42"/><polyline class="cls-1" points="542.85 110.5 459.87 135.21 375.33 110.5 459.87 85.75 542.85 110.5"/><polygon class="cls-1" points="437.11 76.94 413.85 79.04 382.72 55.54 437.11 76.94"/><polygon class="cls-1" points="437.11 144.02 413.85 141.92 382.72 165.42 437.11 144.02"/><polyline class="cls-1" points="0.33 107.46 83.32 82.75 167.78 106.75 83.32 132.21 0.33 107.46"/><polygon class="cls-1" points="106.08 141.02 129.33 138.92 160.46 162.42 106.08 141.02"/><polygon class="cls-1" points="106.08 73.94 129.33 76.04 160.46 52.54 106.08 73.94"/><polyline class="cls-1" points="358.44 46.5 438.85 110.5 355.69 171.25"/><polyline class="cls-1" points="187.19 46.5 106.08 107.13 187.19 171.25"/></svg>