<svg id="Layer_1" data-name="Layer 1" xmlns="http://www.w3.org/2000/svg" viewBox="0 0 1140.98 213.29"><defs><style>.cls-1{fill:none;stroke:#960;stroke-miterlimit:10;}</style></defs><title>Pattern3</title><polygon class="cls-1" points="569 82.58 586.14 57.57 585.3 87.88 613.88 77.72 595.38 101.75 624.47 110.32 595.38 118.89 613.88 142.92 585.3 132.76 586.14 163.07 569 138.05 551.86 163.07 552.7 132.76 524.13 142.92 542.62 118.89 513.53 110.32 542.62 101.75 524.13 77.72 552.7 87.88 551.86 57.57 569 82.58"/><polygon class="cls-1" points="756.5 97.82 764.23 86.54 763.85 100.21 776.73 95.63 768.39 106.46 781.5 110.32 768.39 114.18 776.73 125.01 763.85 120.43 764.23 134.1 756.5 122.82 748.77 134.1 749.15 120.43 736.27 125.01 744.61 114.18 731.5 110.32 744.61 106.46 736.27 95.63 749.15 100.21 748.77 86.54 756.5 97.82"/><path class="cls-1" d="M770.49,103.18h1.3a2.55,2.55,0,0,1,1.41,4.68l-1.09.71a2.55,2.55,0,0,0-.09,4.2l1.06,0.76a2.55,2.55,0,0,1-1.61,4.61l-1.3-.07a2.55,2.55,0,0,0-2.55,3.34l0.41,1.24a2.55,2.55,0,0,1-4,2.78l-1-.82a2.55,2.55,0,0,0-4,1.21l-0.4,1.24a2.55,2.55,0,0,1-4.89-.11l-0.34-1.26a2.55,2.55,0,0,0-4-1.39l-1,.77a2.55,2.55,0,0,1-3.89-3l0.46-1.22a2.55,2.55,0,0,0-2.39-3.45h-1.3a2.55,2.55,0,0,1-1.41-4.68l1.09-.71a2.55,2.55,0,0,0,.09-4.2l-1.06-.76a2.55,2.55,0,0,1,1.61-4.61l1.3,0.07a2.55,2.55,0,0,0,2.55-3.34L745,98a2.55,2.55,0,0,1,4-2.78L750,96a2.55,2.55,0,0,0,4-1.21l0.4-1.24a2.55,2.55,0,0,1,4.89.11l0.34,1.26a2.55,2.55,0,0,0,4,1.39l1-.77a2.55,2.55,0,0,1,3.89,3l-0.46,1.22A2.55,2.55,0,0,0,770.49,103.18Z"/><polygon class="cls-1" points="381.5 97.82 389.23 86.54 388.85 100.21 401.73 95.63 393.39 106.46 406.5 110.32 393.39 114.18 401.73 125.01 388.85 120.43 389.23 134.1 381.5 122.82 373.77 134.1 374.15 120.43 361.27 125.01 369.61 114.18 356.5 110.32 369.61 106.46 361.27 95.63 374.15 100.21 373.77 86.54 381.5 97.82"/><path class="cls-1" d="M395.49,103.18h1.3a2.55,2.55,0,0,1,1.41,4.68l-1.09.71a2.55,2.55,0,0,0-.09,4.2l1.06,0.76a2.55,2.55,0,0,1-1.61,4.61l-1.3-.07a2.55,2.55,0,0,0-2.55,3.34l0.41,1.24a2.55,2.55,0,0,1-4,2.78l-1-.82a2.55,2.55,0,0,0-4,1.21l-0.4,1.24a2.55,2.55,0,0,1-4.89-.11l-0.34-1.26a2.55,2.55,0,0,0-4-1.39l-1,.77a2.55,2.55,0,0,1-3.89-3l0.46-1.22a2.55,2.55,0,0,0-2.39-3.45h-1.3a2.55,2.55,0,0,1-1.41-4.68l1.09-.71a2.55,2.55,0,0,0,.09-4.2l-1.06-.76a2.55,2.55,0,0,1,1.61-4.61l1.3,0.07a2.55,2.55,0,0,0,2.55-3.34L370,98a2.55,2.55,0,0,1,4-2.78L375,96a2.55,2.55,0,0,0,4-1.21l0.4-1.24a2.55,2.55,0,0,1,4.89.11l0.34,1.26a2.55,2.55,0,0,0,4,1.39l1-.77a2.55,2.55,0,0,1,3.89,3l-0.46,1.22A2.55,2.55,0,0,0,395.49,103.18Z"/><line class="cls-1" x1="268" y1="110.5" x2="120" y2="110.5"/><line class="cls-1" x1="870" y1="109.5" x2="1018" y2="109.5"/></svg>