<svg id="Layer_1" data-name="Layer 1" xmlns="http://www.w3.org/2000/svg" viewBox="0 0 1140.98 213.29"><defs><style>.cls-1{fill:none;stroke:#063;stroke-miterlimit:10;}</style></defs><title>Pattern2</title><polygon class="cls-1" points="570.7 87.66 578.82 81.06 581.51 91.17 591.96 90.61 588.19 100.37 596.97 106.06 588.19 111.74 591.96 121.5 581.51 120.94 578.82 131.05 570.7 124.45 562.58 131.05 559.88 120.94 549.44 121.5 553.2 111.74 544.42 106.06 553.2 100.37 549.44 90.61 559.88 91.17 562.58 81.06 570.7 87.66"/><polyline class="cls-1" points="639.46 85.19 669.03 110.03 609.17 156.08 578.8 130.84 565.6 170.5 548.98 170.5"/><polyline class="cls-1" points="518.13 65.67 513.1 81.06 544.42 106.06 513.1 131.05 517.92 146.53"/><polyline class="cls-1" points="588.98 41.5 572.85 41.5 562.58 80.88 530.73 56.78 477.35 94.08 493.78 106.35 477.35 117.11 530.73 156.12 562.58 130.85 573.85 170.5 589.85 170.5 601.85 161.44 591.96 121.41 627.6 123.58 639.6 85.35 608.6 59.61 578.82 80.87 566.85 41.5 551.98 41.5"/><polyline class="cls-1" points="517.92 146.53 537.1 212.44 589.85 170.5 649.35 170.5 632.41 108.13 628.1 91.53 591.83 90.7 603.04 52.79 570.82 28.65 537.34 52.71 549.44 90.5 509.98 90.5 505.35 106.19 509.98 123.53 549.44 121.45 537.35 161.6 601.1 211.11 625.07 131.94 596.97 106.05 626.1 85.37 621.95 70.71 602.1 4.38 570.82 28.66 538.85 0.88 518.13 65.67"/><polyline class="cls-1" points="548.98 170.5 480.85 170.5 505.35 106.19 480.85 46.03 551.92 41.64"/><polyline class="cls-1" points="588.85 41.88 652.1 46.13 639.6 85.38"/><polyline class="cls-1" points="532.86 19.63 547.6 31.38 552.89 13.08"/><polyline class="cls-1" points="587.45 15.75 592.6 34.63 607.44 22.23"/><polyline class="cls-1" points="635.3 44.86 629.35 63.5 646.98 63.5"/><polyline class="cls-1" points="655.7 99.01 639.6 109.13 655.7 120.35"/><polyline class="cls-1" points="643.98 151.5 627.85 151.5 632.17 170.5"/><polyline class="cls-1" points="587.28 200.39 592.85 181.38 606.87 192.06"/><polyline class="cls-1" points="531.59 193.63 546.85 181.38 552.56 200.39"/><polyline class="cls-1" points="487.98 151.5 507.85 151.5 501.92 170.5"/><polyline class="cls-1" points="477.35 94.13 461.45 106.38 477.35 117.13"/><polyline class="cls-1" points="487.85 63.34 505.35 60.63 498.86 45.05"/><polygon class="cls-1" points="369.48 97.57 369.48 55.23 356.98 49.39 344.48 55.23 344.48 97.57 308.08 118.84 309.44 132.51 320.82 140.33 357.71 119.06 394.57 140.33 405.85 132.51 406.66 118.84 369.48 97.57"/><polygon class="cls-1" points="344.48 113.51 344.48 155.85 356.98 161.69 369.48 155.85 369.48 113.51 406.63 92.24 405.63 78.57 394.44 70.75 357.64 92.02 320.82 70.75 309.57 78.57 308.03 92.24 344.48 113.51"/><polygon class="cls-1" points="149.98 94.28 157.71 83.01 157.33 96.67 170.21 92.09 161.87 102.92 174.98 106.78 161.87 110.65 170.21 121.48 157.33 116.9 157.71 130.56 149.98 119.28 142.26 130.56 142.63 116.9 129.76 121.48 138.09 110.65 124.98 106.78 138.09 102.92 129.76 92.09 142.63 96.67 142.26 83.01 149.98 94.28"/><polygon class="cls-1" points="760.48 113.51 760.48 155.85 772.98 161.69 785.48 155.85 785.48 113.51 822.22 92.24 821.02 78.57 809.73 70.75 772.88 92.02 736.03 70.75 724.76 78.57 723.63 92.24 760.48 113.51"/><polygon class="cls-1" points="785.48 97.57 785.48 55.23 772.98 49.39 760.48 55.23 760.48 97.57 723.67 118.84 724.83 132.51 736.1 140.33 772.94 119.06 809.78 140.33 821.05 132.51 822.26 118.84 785.48 97.57"/><polygon class="cls-1" points="980.42 116.8 972.7 128.07 973.07 114.41 960.2 118.99 968.53 108.16 955.42 104.3 968.53 100.43 960.2 89.6 973.07 94.18 972.7 80.52 980.42 91.8 988.15 80.52 987.77 94.18 1000.65 89.6 992.31 100.43 1005.42 104.3 992.31 108.16 1000.65 118.99 987.77 114.41 988.15 128.07 980.42 116.8"/></svg>